<?xml version="1.0" encoding="UTF-8" standalone="no"?>
<!-- Created with Inkscape (http://www.inkscape.org/) -->

<svg
   width="210mm"
   height="297mm"
   viewBox="0 0 210 297"
   version="1.1"
   id="svg5"
   inkscape:version="1.2.2 (732a01da63, 2022-12-09)"
   sodipodi:docname="jpig_logo.svg"
   xmlns:inkscape="http://www.inkscape.org/namespaces/inkscape"
   xmlns:sodipodi="http://sodipodi.sourceforge.net/DTD/sodipodi-0.dtd"
   xmlns="http://www.w3.org/2000/svg"
   xmlns:svg="http://www.w3.org/2000/svg">
  <sodipodi:namedview
     id="namedview7"
     pagecolor="#ffffff"
     bordercolor="#000000"
     borderopacity="0.25"
     inkscape:showpageshadow="2"
     inkscape:pageopacity="0.0"
     inkscape:pagecheckerboard="0"
     inkscape:deskcolor="#d1d1d1"
     inkscape:document-units="mm"
     showgrid="false"
     inkscape:zoom="1.5760803"
     inkscape:cx="319.78066"
     inkscape:cy="519.00909"
     inkscape:window-width="3840"
     inkscape:window-height="2054"
     inkscape:window-x="2869"
     inkscape:window-y="-11"
     inkscape:window-maximized="1"
     inkscape:current-layer="layer1" />
  <defs
     id="defs2" />
  <g
     inkscape:label="Camada 1"
     inkscape:groupmode="layer"
     id="layer1">
    <g
       id="g2017"
       inkscape:export-filename="jpig_logo.png"
       inkscape:export-xdpi="96"
       inkscape:export-ydpi="96">
      <path
         id="path452-8"
         style="fill:#000000;stroke:#000000;stroke-width:9.2;stroke-linecap:round;stroke-linejoin:round;stroke-miterlimit:1.6;stroke-dasharray:none;stroke-dashoffset:1895.81;paint-order:markers fill stroke"
         d="m 97.165348,50.530573 1.52911,14.82803 0.02946,-0.0372 a 21.589392,21.589392 0 0 0 -1.97921,9.00306 21.589392,21.589392 0 0 0 21.589382,21.589383 21.589392,21.589392 0 0 0 21.58938,-21.589383 21.589392,21.589392 0 0 0 -1.95389,-8.97051 l 0.004,0.0046 1.5291,-14.82803 -11.41584,4.53409 a 21.589392,21.589392 0 0 0 -9.75289,-2.32958 21.589392,21.589392 0 0 0 -9.73946,2.33474 z m 8.150932,6.58771 a 21.589392,21.589392 0 0 0 -0.12041,0.08888 l 0.0289,-0.03617 z m 26.11727,0.04702 0.0103,0.0057 0.004,0.0052 a 21.589392,21.589392 0 0 0 -0.0145,-0.01086 z m 31.28077,48.174327 c -8.10769,0 -14.97697,3.07424 -20.60804,9.22217 -5.605,6.11947 -8.40724,13.60515 -8.40724,22.45703 0,8.65265 2.84134,16.06721 8.52455,22.2436 5.70927,6.14794 12.53946,9.22166 20.49073,9.22166 4.45793,0 9.2287,-1.42272 14.31231,-4.26899 1.22528,0.0285 3.14151,0.29848 5.74849,0.81081 2.52876,0.48386 4.44499,0.72605 5.74848,0.72605 0.91244,0 1.36891,-0.42718 1.36891,-1.28106 0,-1.62237 -0.1437,-4.24058 -0.43046,-7.85533 -0.28677,-3.64322 -0.42995,-6.3614 -0.42995,-8.15454 0,-1.53699 0.11729,-3.84293 0.35191,-6.91689 0.2607,-3.07397 0.39119,-5.3794 0.39119,-6.91638 0,-0.6831 -0.37827,-1.02474 -1.13429,-1.02474 -1.14707,0 -2.86782,0.0572 -5.16196,0.17105 -2.29414,0.11385 -4.01437,0.17053 -5.16144,0.17053 -3.31086,0 -5.87904,-0.11388 -7.70393,-0.34158 -1.22528,-0.17078 -1.92901,-0.2558 -2.1115,-0.2558 -0.39104,0 -0.66472,0.085 -0.82113,0.2558 -0.10428,0.25616 -0.15658,0.54112 -0.15658,0.85421 0,1.50852 0.13049,3.50064 0.39119,5.9769 0.36497,3.30166 0.57366,5.30822 0.6258,6.01978 -1.35563,0.68311 -2.8809,1.02475 -4.57543,1.02475 -2.5027,0 -4.6794,-1.05275 -6.53035,-3.15898 -1.82489,-2.10624 -2.7373,-4.53997 -2.7373,-7.30085 0,-2.76088 0.86011,-5.1235 2.58072,-7.08742 1.74667,-1.99239 3.87159,-2.98845 6.37429,-2.98845 2.37234,0 4.53584,0.68328 6.49107,2.04949 1.9813,1.33774 3.1938,2.00659 3.63699,2.00659 0.52139,0 1.04285,-0.18499 1.56424,-0.555 0.99066,-0.68311 2.84138,-2.66132 5.55264,-5.93452 2.89374,-3.50091 4.34082,-5.67854 4.34082,-6.53242 0,-0.54079 -0.24778,-1.19521 -0.74311,-1.96371 -2.05951,-3.21628 -5.33142,-5.835 -9.81542,-7.85585 -4.11902,-1.87853 -8.10787,-2.81791 -11.9662,-2.81791 z m -138.938802,1.57975 c -0.62568,0 -0.92524,0.35606 -0.89917,1.06763 v 0.51211 c 0.05214,1.62238 0.31261,7.35759 0.78186,17.20567 0.31284,7.00181 0.46922,12.75146 0.46922,17.24856 0,5.32252 -0.41685,9.46393 -1.25108,12.42405 -0.91244,3.21628 -2.4636,5.76338 -4.65346,7.64191 -0.75603,0.56925 -1.34299,0.99643 -1.7601,1.28106 -0.28677,0.31309 -0.42995,0.59753 -0.42995,0.85369 0,0.28463 0.16959,0.61184 0.50849,0.98186 3.07624,3.01704 5.39612,5.25135 6.9603,6.70295 2.71126,3.18781 4.71889,5.60712 6.02237,7.25795 0.36498,0.42694 0.71685,0.64079 1.05575,0.64079 0.39105,0 0.87341,-0.27053 1.44694,-0.81132 4.92719,-4.83865 8.52507,-11.29992 10.79314,-19.38331 1.22528,-4.44018 1.83762,-10.4315 1.83762,-17.9741 0,-0.93927 -0.02589,-2.34808 -0.07803,-4.22662 -0.05214,-1.87853 -0.07855,-3.28734 -0.07855,-4.22661 0,-2.90319 0.11729,-7.24403 0.35191,-13.02195 0.2607,-5.80638 0.3912,-10.16112 0.3912,-13.06431 0,-0.74003 -0.32598,-1.11001 -0.97772,-1.11001 -1.09493,0 -2.73697,0.0572 -4.92683,0.17104 -2.18986,0.11386 -3.83242,0.17054 -4.92735,0.17054 -1.17314,0 -2.94567,-0.0567 -5.31802,-0.17054 -2.37235,-0.11385 -4.1454,-0.17104 -5.31854,-0.17104 z m 28.82046,0 c -0.67781,0 -0.9911,0.32721 -0.93896,0.98185 l 0.03927,0.59789 c 0.72996,10.75889 1.09503,20.20834 1.09503,28.34866 0,3.18782 -0.15639,7.98417 -0.46922,14.38827 -0.31284,6.37563 -0.46923,11.15704 -0.46923,14.34486 0,0.82542 0.43006,1.23817 1.29036,1.23817 0.99066,0 2.47683,-0.0567 4.45813,-0.17053 2.00737,-0.11385 3.50623,-0.17105 4.49688,-0.17105 4.51007,0 7.89927,0.17108 10.16734,0.51263 0.46926,0.0854 0.79471,0.12815 0.9772,0.12815 0.5214,0 0.78238,-0.32772 0.78238,-0.98236 0,-1.08158 -0.11728,-2.71816 -0.35191,-4.90978 -0.23463,-2.22009 -0.35192,-3.885 -0.35192,-4.99505 0,-0.88234 0.69053,-1.32343 2.07223,-1.32343 0.52139,0 1.29063,0.0567 2.30735,0.17053 1.04279,0.0854 1.82471,0.12816 2.34611,0.12816 6.88242,0 12.20105,-2.24823 15.9551,-6.74532 3.62369,-4.32633 5.435322,-10.30374 5.435322,-17.93173 0,-7.05873 -2.033512,-12.75118 -6.100402,-17.07751 -4.04081,-4.35478 -9.29394,-6.53241 -15.75924,-6.53241 -1.3817,0 -3.45432,0.0572 -6.21771,0.17104 -2.7634,0.11386 -4.8355,0.17054 -6.21719,0.17054 -1.61633,0 -4.04081,-0.0567 -7.27346,-0.17054 -3.23265,-0.11385 -5.65713,-0.17104 -7.27346,-0.17104 z m 54.629222,0 c -0.62567,0 -0.93896,0.31329 -0.93896,0.93947 0,2.87473 0.11781,7.24391 0.35244,13.10721 0.2607,5.83485 0.39067,10.21794 0.39067,13.14959 0,3.5009 -0.12997,8.75226 -0.39067,15.75408 -0.2607,7.00181 -0.39119,12.23874 -0.39119,15.71118 0,0.82542 0.43006,1.23817 1.29036,1.23817 1.06886,0 2.67232,-0.0567 4.81004,-0.17053 2.16379,-0.11385 3.77994,-0.17105 4.8488,-0.17105 1.14707,0 2.84141,0.0711 5.08341,0.21342 2.26807,0.11385 3.96293,0.17105 5.08393,0.17105 0.75602,0 1.13378,-0.42718 1.13378,-1.28106 0,-3.47244 -0.12998,-8.70937 -0.39068,-15.71118 -0.26069,-7.00182 -0.39119,-12.25318 -0.39119,-15.75408 0,-2.90319 0.11729,-7.25794 0.35192,-13.06432 0.2607,-5.83484 0.39119,-10.20402 0.39119,-13.10721 0,-0.6831 -0.33918,-1.02474 -1.01699,-1.02474 -1.06886,0 -2.69821,0.0572 -4.88807,0.17104 -2.18987,0.11386 -3.83242,0.17054 -4.92735,0.17054 -1.17314,0 -2.91978,-0.0567 -5.23999,-0.17054 -2.29414,-0.11385 -4.01438,-0.17104 -5.16145,-0.17104 z M 74.611688,124.8511 c 3.72798,0 5.59191,2.09209 5.59191,6.2761 0,4.32632 -1.95533,6.48953 -5.86579,6.48953 -0.7821,0 -1.17306,-0.22776 -1.17306,-0.68317 0,-0.65464 -0.02589,-1.62236 -0.07803,-2.90318 -0.05214,-1.28082 -0.07855,-2.24854 -0.07855,-2.90318 0,-4.18401 0.53466,-6.2761 1.60352,-6.2761 z" />
      <g
         id="g1822">
        <g
           id="g1802"
           transform="matrix(0.546169,0,0,0.546169,43.127708,50.53056)"
           style="stroke-width:1.83094">
          <circle
             style="fill:#ffaaaa;stroke:none;stroke-width:4.21115;stroke-linecap:round;stroke-linejoin:round;stroke-miterlimit:1.6;stroke-dashoffset:1895.81;paint-order:markers fill stroke"
             id="path452"
             cx="137.69785"
             cy="43.564747"
             r="39.528774" />
          <ellipse
             style="fill:#000000;stroke:none;stroke-width:4.21115;stroke-linecap:round;stroke-linejoin:round;stroke-miterlimit:1.6;stroke-dashoffset:1895.81;paint-order:markers fill stroke"
             id="path506"
             cx="120.49991"
             cy="39.299248"
             rx="4.5326056"
             ry="6.0434737" />
          <ellipse
             style="fill:#000000;stroke:none;stroke-width:4.21115;stroke-linecap:round;stroke-linejoin:round;stroke-miterlimit:1.6;stroke-dashoffset:1895.81;paint-order:markers fill stroke"
             id="path506-2"
             cx="154.53214"
             cy="39.299248"
             rx="4.5326056"
             ry="6.0434737" />
          <g
             id="g559"
             transform="matrix(0.72142089,0,0,0.71629759,108.54162,40.844622)"
             style="stroke:none;stroke-width:2.54701">
            <ellipse
               style="fill:#d35f5f;stroke:none;stroke-width:5.85813;stroke-linecap:round;stroke-linejoin:round;stroke-miterlimit:1.6;stroke-dashoffset:1895.81;paint-order:markers fill stroke"
               id="path530"
               cx="39.534393"
               cy="23.292555"
               rx="18.046484"
               ry="13.807659" />
            <circle
               style="fill:#000000;stroke:none;stroke-width:5.85813;stroke-linecap:round;stroke-linejoin:round;stroke-miterlimit:1.6;stroke-dashoffset:1895.81;paint-order:markers fill stroke"
               id="path532"
               cx="33.658787"
               cy="20.044127"
               r="2.0984282" />
            <circle
               style="fill:#000000;stroke:none;stroke-width:5.85813;stroke-linecap:round;stroke-linejoin:round;stroke-miterlimit:1.6;stroke-dashoffset:1895.81;paint-order:markers fill stroke"
               id="path532-5"
               cx="46.286747"
               cy="20.044127"
               r="2.0984282" />
          </g>
          <ellipse
             style="fill:#ffffff;stroke:none;stroke-width:4.21115;stroke-linecap:round;stroke-linejoin:round;stroke-miterlimit:1.6;stroke-dashoffset:1895.81;paint-order:markers fill stroke"
             id="path658"
             cx="118.55761"
             cy="36.038433"
             rx="1.6096247"
             ry="2.1996641" />
          <ellipse
             style="fill:#ffffff;stroke:none;stroke-width:4.21115;stroke-linecap:round;stroke-linejoin:round;stroke-miterlimit:1.6;stroke-dashoffset:1895.81;paint-order:markers fill stroke"
             id="path658-5"
             cx="152.72362"
             cy="36.038433"
             rx="1.6096247"
             ry="2.1996641" />
          <g
             id="g1002"
             style="stroke-width:1.83094">
            <path
               style="fill:#ff8080;stroke:none;stroke-width:4.21115;stroke-linecap:round;stroke-linejoin:round;stroke-miterlimit:1.6;stroke-dashoffset:1895.81;paint-order:markers fill stroke"
               d="M 101.7388,27.149184 98.939385,0 113.69488,12.158033 Z m 1.41994,-19.5109046 z"
               id="path844"
               sodipodi:nodetypes="cccc" />
            <path
               style="fill:#ffaaaa;stroke:none;stroke-width:4.21115;stroke-linecap:round;stroke-linejoin:round;stroke-miterlimit:1.6;stroke-dashoffset:1895.81;paint-order:markers fill stroke"
               d="M 120.16723,8.4312031 98.939383,1e-7 113.69488,12.158033 Z"
               id="path844-1"
               sodipodi:nodetypes="cccc" />
          </g>
          <g
             id="g1008"
             transform="matrix(-1,0,0,1,275.39569,0)"
             style="stroke-width:1.83094">
            <path
               style="fill:#ff8080;stroke:none;stroke-width:4.21115;stroke-linecap:round;stroke-linejoin:round;stroke-miterlimit:1.6;stroke-dashoffset:1895.81;paint-order:markers fill stroke"
               d="M 101.7388,27.149184 98.939385,0 113.69488,12.158033 Z m 1.41994,-19.5109046 z"
               id="path1004"
               sodipodi:nodetypes="cccc" />
            <path
               style="fill:#ffaaaa;stroke:none;stroke-width:4.21115;stroke-linecap:round;stroke-linejoin:round;stroke-miterlimit:1.6;stroke-dashoffset:1895.81;paint-order:markers fill stroke"
               d="M 120.16723,8.4312031 98.939383,1e-7 113.69488,12.158033 Z"
               id="path1006"
               sodipodi:nodetypes="cccc" />
          </g>
        </g>
        <text
           xml:space="preserve"
           style="font-style:normal;font-variant:normal;font-weight:bold;font-stretch:normal;font-size:83.6812px;font-family:'Berlin Sans FB';-inkscape-font-specification:'Berlin Sans FB Bold';fill:#ffaaaa;stroke:#d35f5f;stroke-width:2.29999;stroke-linecap:round;stroke-linejoin:round;stroke-miterlimit:1.6;stroke-dashoffset:1895.81;paint-order:markers fill stroke"
           x="16.874836"
           y="159.65279"
           id="text1129"
           transform="scale(0.95704175,1.0448865)"><tspan
             sodipodi:role="line"
             id="tspan1127"
             style="font-style:normal;font-variant:normal;font-weight:bold;font-stretch:normal;font-family:'Berlin Sans FB';-inkscape-font-specification:'Berlin Sans FB Bold';fill:#ffaaaa;stroke:#d35f5f;stroke-width:2.29999"
             x="16.874836"
             y="159.65279">JPIG</tspan></text>
      </g>
    </g>
  </g>
</svg>
